<?xml version="1.0" standalone="no"?>
<!DOCTYPE svg PUBLIC "-//W3C//DTD SVG 20010904//EN"
 "http://www.w3.org/TR/2001/REC-SVG-20010904/DTD/svg10.dtd">
<svg version="1.0" xmlns="http://www.w3.org/2000/svg"
 width="260.000000pt" height="260.000000pt" viewBox="0 0 260.000000 260.000000"
 preserveAspectRatio="xMidYMid meet">
<metadata>
Created by potrace 1.14, written by Peter Selinger 2001-2017
</metadata>
<g transform="translate(0.000000,260.000000) scale(0.100000,-0.100000)"
fill="#000000" stroke="none">
<path d="M0 1300 l0 -1300 1300 0 1300 0 0 1300 0 1300 -1300 0 -1300 0 0
-1300z m969 824 c51 -9 211 -50 355 -91 241 -69 268 -75 351 -75 88 1 269 30
450 72 68 16 95 18 124 10 115 -31 137 -192 34 -251 -62 -37 -461 -109 -602
-110 -113 0 -199 16 -403 77 -221 66 -335 93 -414 100 -86 8 -233 -15 -378
-58 -122 -36 -173 -34 -217 8 -70 67 -58 178 24 221 58 29 298 90 422 106 71
9 168 6 254 -9z m56 -614 c50 -10 192 -48 316 -84 124 -35 253 -68 286 -71 69
-8 224 12 423 56 158 34 194 36 237 9 92 -56 81 -195 -20 -240 -54 -24 -361
-85 -501 -100 -140 -15 -213 -5 -461 66 -344 99 -382 107 -485 107 -98 0 -192
-16 -340 -59 -103 -29 -152 -30 -196 -4 -46 29 -71 96 -56 148 24 78 85 108
325 162 192 44 303 46 472 10z m-16 -600 c54 -11 201 -49 327 -85 126 -37 257
-69 291 -72 78 -7 201 9 409 53 187 39 198 40 243 16 97 -52 91 -195 -9 -244
-39 -19 -339 -82 -470 -98 -175 -21 -235 -12 -565 83 -288 83 -329 91 -459 84
-86 -4 -142 -14 -246 -43 -158 -45 -203 -48 -246 -16 -86 61 -80 180 13 234
32 19 226 72 338 93 109 20 262 18 374 -5z"/>
</g>
</svg>
