<svg width="23" height="19" viewBox="0 0 23 19" fill="none" xmlns="http://www.w3.org/2000/svg">
<path fill-rule="evenodd" clip-rule="evenodd" d="M1.50029 3L1.02595 1.57698C0.240033 1.83895 -0.184707 2.68843 0.0772643 3.47434C0.339209 4.26018 1.18854 4.68491 1.97439 4.42311L1.97456 4.42305L1.97463 4.42303L1.97875 4.42166L1.9995 4.41486C2.01872 4.4086 2.04851 4.39896 2.08791 4.38642C2.16675 4.36133 2.28379 4.32475 2.43131 4.28049C2.72709 4.19176 3.14162 4.07333 3.61409 3.95521C4.59293 3.71051 5.69398 3.5 6.50029 3.5C7.48483 3.5 9.00007 3.91624 10.7617 4.4382L11.0427 4.5216C11.7835 4.74159 12.5428 4.96707 13.2344 5.14181C13.9906 5.33283 14.801 5.5 15.5003 5.5C16.6669 5.5 18.3013 5.21951 19.5445 4.97087C20.1875 4.84227 20.7648 4.71395 21.1813 4.61784C21.3899 4.56971 21.5589 4.52948 21.6765 4.50109C21.7353 4.48689 21.7813 4.47565 21.8131 4.46784L21.8498 4.45877L21.8598 4.45628L21.8627 4.45556L21.8636 4.45534L21.8639 4.45527C21.864 4.45524 21.8641 4.45521 21.5003 3L21.8641 4.45521C22.6678 4.25429 23.1564 3.43989 22.9555 2.6362C22.7546 1.83255 21.9403 1.34391 21.1366 1.54476L21.1365 1.54479L21.1364 1.5448L21.1349 1.54517L21.1277 1.54697L21.0967 1.55462C21.0689 1.56146 21.027 1.5717 20.9725 1.58485C20.8636 1.61115 20.7044 1.64904 20.5068 1.69466C20.1107 1.78605 19.5631 1.90773 18.9561 2.02913C17.6993 2.28049 16.3337 2.5 15.5003 2.5C15.1996 2.5 14.6975 2.41717 13.9693 2.23319C13.3419 2.0747 12.6464 1.86824 11.895 1.6452L11.895 1.64519L11.6139 1.5618C10.0005 1.08376 8.01575 0.5 6.50029 0.5C5.3066 0.5 3.90765 0.789496 2.88649 1.04479C2.35895 1.17667 1.89849 1.30824 1.56927 1.40701C1.40429 1.4565 1.27133 1.49804 1.1783 1.52764C1.13176 1.54245 1.09514 1.55429 1.06944 1.56268L1.03916 1.5726L1.03038 1.5755L1.02761 1.57642L1.02664 1.57674L1.02626 1.57687C1.0261 1.57693 1.02595 1.57698 1.50029 3ZM1.50049 9.5L1.02615 8.07697C0.240232 8.33895 -0.184508 9.18843 0.0774634 9.97434C0.339408 10.7602 1.18874 11.1849 1.97459 10.9231L1.97476 10.923L1.97483 10.923L1.97895 10.9217L1.9997 10.9149C2.01892 10.9086 2.04871 10.899 2.08811 10.8864C2.16695 10.8613 2.28399 10.8247 2.43151 10.7805C2.72729 10.6918 3.14182 10.5733 3.61429 10.4552C4.59313 10.2105 5.69418 10 6.50049 10C7.48503 10 9.00027 10.4162 10.7619 10.9382L11.0429 11.0216C11.7837 11.2416 12.543 11.4671 13.2346 11.6418C13.9908 11.8328 14.8012 12 15.5005 12C16.6671 12 18.3015 11.7195 19.5447 11.4709C20.1877 11.3423 20.765 11.214 21.1815 11.1178C21.3901 11.0697 21.5591 11.0295 21.6767 11.0011C21.7355 10.9869 21.7815 10.9756 21.8133 10.9678L21.85 10.9588L21.86 10.9563L21.8629 10.9556L21.8638 10.9553L21.8641 10.9553C21.8642 10.9552 21.8643 10.9552 21.5005 9.5L21.8643 10.9552C22.668 10.7543 23.1566 9.93989 22.9557 9.1362C22.7548 8.33254 21.9405 7.84391 21.1368 8.04476L21.1367 8.04479L21.1366 8.0448L21.1351 8.04517L21.1279 8.04697L21.0969 8.05462C21.0691 8.06146 21.0272 8.0717 20.9727 8.08485C20.8638 8.11115 20.7046 8.14904 20.5069 8.19466C20.1109 8.28605 19.5633 8.40773 18.9563 8.52913C17.6995 8.78049 16.3339 9 15.5005 9C15.1998 9 14.6977 8.91717 13.9695 8.73319C13.3421 8.5747 12.6466 8.36823 11.8952 8.14519L11.6141 8.0618C10.0007 7.58376 8.01594 7 6.50049 7C5.3068 7 3.90785 7.2895 2.88668 7.54479C2.35915 7.67667 1.89869 7.80824 1.56947 7.90701C1.40449 7.9565 1.27153 7.99804 1.1785 8.02764C1.13196 8.04245 1.09534 8.05429 1.06964 8.06267L1.03936 8.0726L1.03058 8.0755L1.02781 8.07642L1.02684 8.07674L1.02646 8.07687C1.0263 8.07692 1.02615 8.07697 1.50049 9.5ZM1.02615 14.577L1.50049 16C1.02615 14.577 1.0263 14.5769 1.02646 14.5769L1.02684 14.5767L1.02781 14.5764L1.03058 14.5755L1.03936 14.5726L1.06964 14.5627C1.09534 14.5543 1.13196 14.5424 1.1785 14.5276C1.27153 14.498 1.40449 14.4565 1.56947 14.407C1.89869 14.3082 2.35915 14.1767 2.88668 14.0448C3.90785 13.7895 5.3068 13.5 6.50049 13.5C8.01594 13.5 10.0007 14.0838 11.6141 14.5618L11.8952 14.6452L11.8953 14.6452C12.6466 14.8682 13.3421 15.0747 13.9695 15.2332C14.6977 15.4172 15.1998 15.5 15.5005 15.5C16.3339 15.5 17.6995 15.2805 18.9563 15.0291C19.5633 14.9077 20.1109 14.786 20.5069 14.6947C20.7046 14.649 20.8638 14.6111 20.9727 14.5848C21.0272 14.5717 21.0691 14.5615 21.0969 14.5546L21.1279 14.547L21.1351 14.5452L21.1366 14.5448L21.1367 14.5448L21.1368 14.5448C21.9405 14.3439 22.7548 14.8325 22.9557 15.6362C23.1566 16.4399 22.668 17.2543 21.8643 17.4552L21.5005 16C21.8643 17.4552 21.8642 17.4552 21.8641 17.4553L21.8638 17.4553L21.8629 17.4556L21.86 17.4563L21.85 17.4588L21.8133 17.4678C21.7815 17.4756 21.7355 17.4869 21.6767 17.5011C21.5591 17.5295 21.3901 17.5697 21.1815 17.6178C20.765 17.714 20.1877 17.8423 19.5447 17.9709C18.3015 18.2195 16.6671 18.5 15.5005 18.5C14.8012 18.5 13.9908 18.3328 13.2346 18.1418C12.543 17.9671 11.7837 17.7416 11.0429 17.5216L10.7619 17.4382C9.00027 16.9162 7.48503 16.5 6.50049 16.5C5.69418 16.5 4.59313 16.7105 3.61429 16.9552C3.14182 17.0733 2.72729 17.1918 2.43151 17.2805C2.28399 17.3247 2.16695 17.3613 2.08811 17.3864C2.04871 17.399 2.01892 17.4086 1.9997 17.4149L1.97895 17.4217L1.97483 17.423L1.97476 17.423L1.97459 17.4231C1.18874 17.6849 0.339408 17.2602 0.0774634 16.4743C-0.184508 15.6884 0.240232 14.8389 1.02615 14.577Z" fill="white"/>
</svg>
