<svg width="25" height="23" viewBox="0 0 25 23" fill="none" xmlns="http://www.w3.org/2000/svg">
<path d="M4.125 0.75C4.59766 0.75 5.02734 1.13672 5.11328 1.60938L5.19922 2.125H23.2461C24.1484 2.125 24.8359 3.02734 24.5781 3.88672L22.2578 12.1367C22.0859 12.7383 21.5703 13.125 20.9258 13.125H7.30469L7.69141 15.1875H20.9688C21.5273 15.1875 22 15.6602 22 16.2188C22 16.8203 21.5273 17.25 20.9688 17.25H6.83203C6.35938 17.25 5.92969 16.9062 5.84375 16.4336L3.26562 2.8125H1.03125C0.429688 2.8125 0 2.38281 0 1.78125C0 1.22266 0.429688 0.75 1.03125 0.75H4.125ZM5.5 20.6875C5.5 19.5703 6.40234 18.625 7.5625 18.625C8.67969 18.625 9.625 19.5703 9.625 20.6875C9.625 21.8477 8.67969 22.75 7.5625 22.75C6.40234 22.75 5.5 21.8477 5.5 20.6875ZM22 20.6875C22 21.8477 21.0547 22.75 19.9375 22.75C18.7773 22.75 17.875 21.8477 17.875 20.6875C17.875 19.5703 18.7773 18.625 19.9375 18.625C21.0547 18.625 22 19.5703 22 20.6875Z" fill="white"/>
</svg>
