<svg width="16" height="19" viewBox="0 0 16 19" fill="none" xmlns="http://www.w3.org/2000/svg">
<path d="M4.74609 0.882812C4.92188 0.496094 5.30859 0.25 5.73047 0.25H9.98438C10.4062 0.25 10.793 0.496094 10.9688 0.882812L11.25 1.375H14.625C15.2227 1.375 15.75 1.90234 15.75 2.5C15.75 3.13281 15.2227 3.625 14.625 3.625H1.125C0.492188 3.625 0 3.13281 0 2.5C0 1.90234 0.492188 1.375 1.125 1.375H4.5L4.74609 0.882812ZM1.08984 4.75H14.625V16C14.625 17.2656 13.6055 18.25 12.375 18.25H3.33984C2.10938 18.25 1.08984 17.2656 1.08984 16V4.75ZM3.90234 7.5625V15.4375C3.90234 15.7539 4.18359 16 4.46484 16C4.78125 16 5.02734 15.7539 5.02734 15.4375V7.5625C5.02734 7.28125 4.78125 7 4.46484 7C4.18359 7 3.90234 7.28125 3.90234 7.5625ZM7.27734 7.5625V15.4375C7.27734 15.7539 7.55859 16 7.83984 16C8.15625 16 8.4375 15.7539 8.4375 15.4375V7.5625C8.4375 7.28125 8.15625 7 7.83984 7C7.55859 7 7.27734 7.28125 7.27734 7.5625ZM10.6875 7.5625V15.4375C10.6875 15.7539 10.9336 16 11.25 16C11.5312 16 11.8125 15.7539 11.8125 15.4375V7.5625C11.8125 7.28125 11.5312 7 11.25 7C10.9336 7 10.6875 7.28125 10.6875 7.5625Z" fill="#FF1654"/>
</svg>
