<svg width="123" height="19" viewBox="0 0 123 19" fill="none" xmlns="http://www.w3.org/2000/svg">
<path d="M10.55 5.99999H13.5L8.625 18.5H5.5L0.625 5.99999H3.575L7.075 15.5L10.55 5.99999Z" fill="white"/>
<path d="M16.8465 13.4C17.0465 14.35 17.5048 15.0833 18.2215 15.6C18.9382 16.1 19.8132 16.35 20.8465 16.35C22.2798 16.35 23.3548 15.8333 24.0715 14.8L26.2965 16.1C25.0632 17.9167 23.2382 18.825 20.8215 18.825C18.7882 18.825 17.1465 18.2083 15.8965 16.975C14.6465 15.725 14.0215 14.15 14.0215 12.25C14.0215 10.3833 14.6382 8.82499 15.8715 7.57499C17.1048 6.30833 18.6882 5.67499 20.6215 5.67499C22.4548 5.67499 23.9548 6.31666 25.1215 7.59999C26.3048 8.88333 26.8965 10.4417 26.8965 12.275C26.8965 12.5583 26.8632 12.9333 26.7965 13.4H16.8465ZM16.8215 11.2H24.1715C23.9882 10.1833 23.5632 9.41666 22.8965 8.89999C22.2465 8.38333 21.4798 8.12499 20.5965 8.12499C19.5965 8.12499 18.7632 8.39999 18.0965 8.94999C17.4298 9.49999 17.0048 10.25 16.8215 11.2Z" fill="white"/>
<path d="M35.8473 5.67499C37.2806 5.67499 38.4389 6.13333 39.3223 7.04999C40.2056 7.96666 40.6473 9.22499 40.6473 10.825V18.5H37.9473V11.1C37.9473 10.1667 37.6973 9.44999 37.1973 8.94999C36.6973 8.44999 36.0139 8.19999 35.1473 8.19999C34.1973 8.19999 33.4306 8.49999 32.8473 9.09999C32.2639 9.68333 31.9723 10.5833 31.9723 11.8V18.5H29.2723V5.99999H31.9723V7.59999C32.7889 6.31666 34.0806 5.67499 35.8473 5.67499Z" fill="white"/>
<path d="M50.5295 8.59999H47.4295V14.6C47.4295 15.1167 47.5462 15.4917 47.7795 15.725C48.0128 15.9417 48.3545 16.0667 48.8045 16.1C49.2712 16.1167 49.8462 16.1083 50.5295 16.075V18.5C48.4628 18.75 46.9795 18.575 46.0795 17.975C45.1795 17.3583 44.7295 16.2333 44.7295 14.6V8.59999H42.4295V5.99999H44.7295V3.29999L47.4295 2.49999V5.99999H50.5295V8.59999Z" fill="white"/>
<path d="M55.5283 3.62499C55.195 3.95833 54.795 4.12499 54.3283 4.12499C53.8617 4.12499 53.4533 3.95833 53.1033 3.62499C52.77 3.27499 52.6033 2.86666 52.6033 2.39999C52.6033 1.93333 52.77 1.53333 53.1033 1.19999C53.4367 0.849994 53.845 0.674993 54.3283 0.674993C54.8117 0.674993 55.22 0.849994 55.5533 1.19999C55.8867 1.53333 56.0533 1.93333 56.0533 2.39999C56.0533 2.86666 55.8783 3.27499 55.5283 3.62499ZM52.9783 18.5V5.99999H55.6783V18.5H52.9783Z" fill="white"/>
<path d="M67.6883 0.999994V7.17499C66.8633 6.22499 65.6383 5.64999 63.9633 5.64999C60.6883 5.64999 57.9883 8.52499 57.9883 12.25C57.9883 15.975 60.6883 18.85 63.9633 18.85C65.6383 18.85 66.8633 18.275 67.6883 17.325V18.5H71.4383V0.999994H67.6883ZM64.7133 15.3C62.9883 15.3 61.7383 14.125 61.7383 12.25C61.7383 10.375 62.9883 9.2 64.7133 9.2C66.4383 9.2 67.6883 10.375 67.6883 12.25C67.6883 14.125 66.4383 15.3 64.7133 15.3Z" fill="white"/>
<path d="M75.6895 4.89999C76.9145 4.89999 77.9395 3.87499 77.9395 2.64999C77.9395 1.42499 76.9145 0.399994 75.6895 0.399994C74.4645 0.399994 73.4395 1.42499 73.4395 2.64999C73.4395 3.87499 74.4645 4.89999 75.6895 4.89999ZM73.8145 18.5H77.5645V5.99999H73.8145V18.5Z" fill="white"/>
<path d="M83.6836 8.22499V5.99999H79.9336V18.5H83.6836V12.85C83.6836 10.375 85.8836 9.74999 87.4336 9.99999V5.74999C85.8586 5.74999 84.1836 6.54999 83.6836 8.22499Z" fill="white"/>
<path d="M91.7953 13.75H100.67C100.77 13.275 100.82 12.775 100.82 12.25C100.82 8.47499 98.1203 5.64999 94.4703 5.64999C90.5203 5.64999 87.8203 8.52499 87.8203 12.25C87.8203 15.975 90.4703 18.85 94.7453 18.85C97.1203 18.85 98.9703 17.975 100.195 16.275L97.1953 14.55C96.6953 15.1 95.8203 15.5 94.7953 15.5C93.4203 15.5 92.2703 15.05 91.7953 13.75ZM91.7203 10.95C92.0703 9.67499 93.0203 8.97499 94.4453 8.97499C95.5703 8.97499 96.6953 9.49999 97.0953 10.95H91.7203Z" fill="white"/>
<path d="M108.45 18.85C110.9 18.85 113.025 17.575 114.1 15.625L110.825 13.75C110.425 14.625 109.5 15.15 108.4 15.15C106.775 15.15 105.575 13.975 105.575 12.25C105.575 10.525 106.775 9.34999 108.4 9.34999C109.5 9.34999 110.4 9.87499 110.825 10.75L114.1 8.84999C113.025 6.92499 110.875 5.64999 108.45 5.64999C104.65 5.64999 101.825 8.52499 101.825 12.25C101.825 15.975 104.65 18.85 108.45 18.85Z" fill="white"/>
<path d="M122.559 9.59999V5.99999H119.984V2.49999L116.234 3.62499V5.99999H114.234V9.59999H116.234V14.025C116.234 17.525 117.659 19 122.559 18.5V15.1C120.909 15.2 119.984 15.1 119.984 14.025V9.59999H122.559Z" fill="white"/>
</svg>
