<svg width="194" height="39" viewBox="0 0 194 39" fill="none" xmlns="http://www.w3.org/2000/svg">
<path d="M51.8373 14.4052H55.5177L49.4357 30H45.537L39.455 14.4052H43.1353L47.5019 26.2573L51.8373 14.4052ZM59.6927 23.6373C59.9422 24.8225 60.514 25.7374 61.4081 26.382C62.3022 27.0058 63.3939 27.3177 64.6831 27.3177C66.4713 27.3177 67.8124 26.6731 68.7065 25.3839L71.4824 27.0058C69.9437 29.2723 67.6669 30.4055 64.6519 30.4055C62.1151 30.4055 60.067 29.6361 58.5075 28.0975C56.948 26.538 56.1683 24.573 56.1683 22.2026C56.1683 19.8738 56.9376 17.9296 58.4763 16.3701C60.015 14.7898 61.9903 13.9997 64.4023 13.9997C66.6896 13.9997 68.561 14.8002 70.0165 16.4013C71.4928 18.0024 72.231 19.9465 72.231 22.2338C72.231 22.5873 72.1894 23.0551 72.1062 23.6373H59.6927ZM59.6615 20.8926H68.8313C68.6026 19.6242 68.0723 18.6678 67.2406 18.0232C66.4297 17.3786 65.4732 17.0563 64.3712 17.0563C63.1236 17.0563 62.0839 17.3994 61.2522 18.0856C60.4205 18.7717 59.8902 19.7074 59.6615 20.8926ZM83.3979 13.9997C85.1861 13.9997 86.6312 14.5715 87.7332 15.7151C88.8353 16.8588 89.3863 18.4286 89.3863 20.4248V30H86.0178V20.7679C86.0178 19.6035 85.7059 18.7093 85.0821 18.0856C84.4583 17.4618 83.6058 17.1499 82.5245 17.1499C81.3393 17.1499 80.3828 17.5241 79.6551 18.2727C78.9273 19.0005 78.5634 20.1233 78.5634 21.6412V30H75.195V14.4052H78.5634V16.4013C79.5823 14.8002 81.1938 13.9997 83.3979 13.9997ZM101.715 17.6489H97.8477V25.1344C97.8477 25.779 97.9933 26.2469 98.2844 26.538C98.5755 26.8083 99.0017 26.9642 99.5631 27.0058C100.145 27.0266 100.863 27.0162 101.715 26.9746V30C99.1369 30.3119 97.2863 30.0936 96.1635 29.345C95.0406 28.5757 94.4792 27.1722 94.4792 25.1344V17.6489H91.6098V14.4052H94.4792V11.0367L97.8477 10.0386V14.4052H101.715V17.6489ZM107.952 11.4421C107.536 11.858 107.037 12.0659 106.455 12.0659C105.872 12.0659 105.363 11.858 104.926 11.4421C104.51 11.0055 104.303 10.4961 104.303 9.91385C104.303 9.33164 104.51 8.8326 104.926 8.41674C105.342 7.98008 105.852 7.76176 106.455 7.76176C107.058 7.76176 107.567 7.98008 107.983 8.41674C108.399 8.8326 108.607 9.33164 108.607 9.91385C108.607 10.4961 108.388 11.0055 107.952 11.4421ZM104.77 30V14.4052H108.139V30H104.77ZM123.122 8.16722V15.8711C122.093 14.6859 120.565 13.9685 118.475 13.9685C114.389 13.9685 111.021 17.5553 111.021 22.2026C111.021 26.8499 114.389 30.4367 118.475 30.4367C120.565 30.4367 122.093 29.7193 123.122 28.5341V30H127.801V8.16722H123.122ZM119.411 26.0077C117.259 26.0077 115.699 24.5418 115.699 22.2026C115.699 19.8634 117.259 18.3974 119.411 18.3974C121.563 18.3974 123.122 19.8634 123.122 22.2026C123.122 24.5418 121.563 26.0077 119.411 26.0077ZM133.105 13.0328C134.633 13.0328 135.912 11.754 135.912 10.2257C135.912 8.69745 134.633 7.41867 133.105 7.41867C131.576 7.41867 130.297 8.69745 130.297 10.2257C130.297 11.754 131.576 13.0328 133.105 13.0328ZM130.765 30H135.444V14.4052H130.765V30ZM143.078 17.1811V14.4052H138.399V30H143.078V22.9511C143.078 19.8634 145.823 19.0836 147.756 19.3955V14.0933C145.791 14.0933 143.702 15.0913 143.078 17.1811ZM153.198 24.074H164.27C164.395 23.4814 164.457 22.8576 164.457 22.2026C164.457 17.4929 161.089 13.9685 156.535 13.9685C151.607 13.9685 148.239 17.5553 148.239 22.2026C148.239 26.8499 151.545 30.4367 156.878 30.4367C159.841 30.4367 162.149 29.345 163.678 27.2241L159.935 25.072C159.311 25.7582 158.22 26.2573 156.941 26.2573C155.225 26.2573 153.791 25.6958 153.198 24.074ZM153.104 20.5807C153.541 18.9901 154.726 18.1167 156.504 18.1167C157.908 18.1167 159.311 18.7717 159.81 20.5807H153.104ZM173.976 30.4367C177.033 30.4367 179.684 28.846 181.025 26.4132L176.939 24.074C176.44 25.1656 175.286 25.8206 173.914 25.8206C171.887 25.8206 170.39 24.3547 170.39 22.2026C170.39 20.0505 171.887 18.5846 173.914 18.5846C175.286 18.5846 176.409 19.2396 176.939 20.3312L181.025 17.9608C179.684 15.5592 177.002 13.9685 173.976 13.9685C169.236 13.9685 165.711 17.5553 165.711 22.2026C165.711 26.8499 169.236 30.4367 173.976 30.4367ZM191.579 18.8965V14.4052H188.366V10.0386L183.688 11.4421V14.4052H181.193V18.8965H183.688V24.4171C183.688 28.7836 185.466 30.6238 191.579 30V25.7582C189.52 25.883 188.366 25.7582 188.366 24.4171V18.8965H191.579Z" fill="white"/>
<path fill-rule="evenodd" clip-rule="evenodd" d="M2.46325 14.8751L2.46347 14.875L2.46355 14.875L2.46869 14.8733L2.49458 14.8648C2.51855 14.857 2.55572 14.845 2.60487 14.8293C2.70324 14.798 2.84925 14.7524 3.0333 14.6972C3.40231 14.5865 3.91948 14.4387 4.50893 14.2914C5.73011 13.9861 7.10376 13.7234 8.10971 13.7234C8.464 13.7234 8.87336 13.7666 9.3293 13.8437C10.4541 14.034 11.8623 14.4306 13.4261 14.8939L13.7768 14.998C14.701 15.2724 15.6482 15.5537 16.5112 15.7717C17.4545 16.0101 18.4656 16.2186 19.338 16.2186C20.7935 16.2186 22.8325 15.8687 24.3835 15.5585C25.1857 15.398 25.906 15.2379 26.4256 15.118C26.6858 15.058 26.8966 15.0078 27.0433 14.9724C27.1167 14.9547 27.1741 14.9406 27.2137 14.9309L27.2596 14.9196L27.2721 14.9165L27.2757 14.9156L27.2768 14.9153L27.2771 14.9152C27.2773 14.9152 27.2774 14.9151 26.8235 13.0996L27.2774 14.9151C28.2801 14.6645 28.8897 13.6484 28.639 12.6458C28.3884 11.6431 27.3724 11.0335 26.3698 11.2841L26.3697 11.2841L26.3696 11.2841L26.3677 11.2846L26.3587 11.2869L26.32 11.2964C26.2853 11.3049 26.2331 11.3177 26.1651 11.3341C26.0292 11.3669 25.8307 11.4142 25.584 11.4711C25.09 11.5851 24.4067 11.7369 23.6495 11.8884C22.0815 12.202 20.3777 12.4758 19.338 12.4758C19.1891 12.4758 19.0006 12.4596 18.7706 12.4256C18.4211 12.3739 17.9758 12.2814 17.4279 12.143C16.6452 11.9452 15.7775 11.6877 14.8401 11.4094L14.4894 11.3054C12.4765 10.709 10.0004 9.98067 8.10971 9.98067C6.62048 9.98067 4.87516 10.3418 3.60117 10.6603C2.94303 10.8249 2.36856 10.989 1.95782 11.1122C1.752 11.174 1.58612 11.2258 1.47005 11.2627C1.41199 11.2812 1.36631 11.296 1.33424 11.3064L1.29647 11.3188L1.28551 11.3225L1.28206 11.3236L1.28085 11.324L1.28038 11.3242C1.28017 11.3242 1.27999 11.3243 1.87166 13.0993L1.27999 11.3243C0.299487 11.6511 -0.230414 12.7109 0.0964189 13.6914C0.423218 14.6718 1.48283 15.2017 2.46325 14.8751ZM2.46343 22.9846L2.46365 22.9845L2.46373 22.9845L2.46887 22.9828L2.49476 22.9743C2.51873 22.9665 2.5559 22.9545 2.60506 22.9388C2.70342 22.9075 2.84943 22.8619 3.03348 22.8067C3.40249 22.696 3.91966 22.5482 4.50911 22.4009C5.73029 22.0956 7.10395 21.8329 8.10989 21.8329C8.46418 21.8329 8.87355 21.8762 9.32948 21.9533C10.4543 22.1435 11.8625 22.5401 13.4263 23.0034L13.7769 23.1075C14.7012 23.3819 15.6484 23.6632 16.5113 23.8813C17.4547 24.1196 18.4658 24.3281 19.3382 24.3281C20.7937 24.3281 22.8327 23.9782 24.3837 23.668C25.1859 23.5075 25.9062 23.3475 26.4258 23.2275C26.686 23.1675 26.8968 23.1173 27.0435 23.0819C27.1169 23.0642 27.1743 23.0502 27.2139 23.0404L27.2598 23.0291L27.2723 23.026L27.2758 23.0251L27.2769 23.0248L27.2773 23.0247C27.2775 23.0247 27.2776 23.0247 26.8237 21.2092L27.2776 23.0247C28.2803 22.774 28.8899 21.758 28.6392 20.7553C28.3886 19.7527 27.3726 19.143 26.37 19.3936L26.3698 19.3936L26.3698 19.3937L26.3679 19.3941L26.3589 19.3964L26.3202 19.4059C26.2855 19.4145 26.2333 19.4272 26.1653 19.4436C26.0294 19.4764 25.8308 19.5237 25.5842 19.5806C25.0901 19.6946 24.4069 19.8465 23.6496 19.9979C22.0816 20.3115 20.3779 20.5854 19.3382 20.5854C19.1893 20.5854 19.0008 20.5691 18.7708 20.5351C18.4213 20.4834 17.976 20.3909 17.4281 20.2525C16.6454 20.0548 15.7777 19.7972 14.8403 19.5189L14.8403 19.5189L14.4896 19.4149C12.4767 18.8185 10.0006 18.0902 8.10989 18.0902C6.62066 18.0902 4.87534 18.4514 3.60135 18.7699C2.94321 18.9344 2.36874 19.0985 1.95801 19.2218C1.75218 19.2835 1.5863 19.3353 1.47024 19.3723C1.41217 19.3907 1.36649 19.4055 1.33442 19.416L1.29665 19.4283L1.28569 19.432L1.28224 19.4331L1.28103 19.4335L1.28056 19.4337C1.28035 19.4337 1.28017 19.4338 1.87184 21.2088L1.28017 19.4338C0.299668 19.7606 -0.230232 20.8204 0.0966004 21.8009C0.423399 22.7813 1.48302 23.3112 2.46343 22.9846ZM2.46365 31.0938L2.46343 31.0939C1.48302 31.4205 0.423399 30.8906 0.0966004 29.9102C-0.230232 28.9297 0.299668 27.8699 1.28017 27.5431L1.87184 29.3181C1.28017 27.5431 1.28035 27.543 1.28056 27.5429L1.28103 27.5428L1.28224 27.5424L1.28569 27.5412L1.29665 27.5376L1.33442 27.5252C1.36649 27.5148 1.41217 27.5 1.47024 27.4815C1.5863 27.4446 1.75218 27.3928 1.95801 27.331C2.36874 27.2078 2.94321 27.0437 3.60135 26.8791C4.87534 26.5606 6.62066 26.1995 8.10989 26.1995C10.0006 26.1995 12.4767 26.9277 14.4896 27.5241L14.8403 27.6282C15.7777 27.9065 16.6454 28.164 17.4281 28.3618C17.976 28.5002 18.4213 28.5927 18.7708 28.6444C19.0008 28.6784 19.1893 28.6946 19.3382 28.6946C20.3779 28.6946 22.0816 28.4208 23.6496 28.1072C24.4069 27.9557 25.0901 27.8039 25.5842 27.6899C25.8308 27.633 26.0294 27.5857 26.1653 27.5529C26.2333 27.5365 26.2855 27.5237 26.3202 27.5152L26.3589 27.5056L26.3679 27.5034L26.3698 27.5029L26.3698 27.5029L26.37 27.5029C27.3726 27.2523 28.3886 27.8619 28.6392 28.8646C28.8899 29.8672 28.2803 30.8833 27.2776 31.1339L26.8237 29.3184C27.2776 31.1339 27.2775 31.134 27.2773 31.134L27.2769 31.1341L27.2758 31.1344L27.2723 31.1353L27.2598 31.1384L27.2139 31.1497C27.1743 31.1594 27.1169 31.1735 27.0435 31.1912C26.8968 31.2266 26.686 31.2768 26.4258 31.3368C25.9062 31.4567 25.1859 31.6168 24.3837 31.7773C22.8327 32.0875 20.7937 32.4374 19.3382 32.4374C18.4658 32.4374 17.4547 32.2288 16.5113 31.9905C15.6484 31.7725 14.7012 31.4912 13.7769 31.2167L13.4263 31.1127C11.8625 30.6493 10.4543 30.2528 9.32948 30.0625C8.87355 29.9854 8.46418 29.9422 8.10989 29.9422C7.10395 29.9422 5.73029 30.2048 4.50911 30.5101C3.91966 30.6575 3.40249 30.8052 3.03348 30.916C2.84943 30.9712 2.70342 31.0168 2.60506 31.0481C2.5559 31.0637 2.51873 31.0758 2.49476 31.0836L2.46887 31.0921L2.46373 31.0938L2.46365 31.0938Z" fill="white"/>
</svg>
